# xmcd
#
# Track frame offsets:
#	150
#	22522
#	42640
#	66482
#	88407
#	109930
#	126885
#	151567
#	171207
#	197107
#
# Disc length: 2900 seconds
#
# Revision: 2
# Processed by: cddbd v1.5.2PL0 Copyright (c) Steve Scherf et al.
# Submitted via: EZCDAudioConverter 8.0.2.1
#
DISCID=840b520a
DTITLE=Various Artist - Những Tình Khúc Vượt Thời Gian. Trên Da Tình Yêu
DYEAR=1999
DGENRE=World Pop
TTITLE0=Khánh Ly - Ru ta ngậm ngùi
TTITLE1=Ý Lan - Đừng lừa dối nhau
TTITLE2=Lê Uyên, Phương - Trên Da Tình Yêu
TTITLE3=Elvis Phương - Màu kỷ niệm
TTITLE4=Thùy Dương - Chị tôi
TTITLE5=Khánh Ly - Mưa hồng
TTITLE6=Phi Khanh - Tình tự mùa xuân
TTITLE7=Duy Trác - Sương khuya
TTITLE8=Thanh Lan - Chiếc bóng bên đương
TTITLE9=Elvis Phương - Trái tim không ngủ yên
EXTD=
EXTT0=
EXTT1=
EXTT2=
EXTT3=
EXTT4=
EXTT5=
EXTT6=
EXTT7=
EXTT8=
EXTT9=
PLAYORDER=
